<svg width="120" height="180" viewBox="0 0 120 180" xmlns="http://www.w3.org/2000/svg">
  <defs>
    <!-- Gradients for realistic bulb -->
    <radialGradient id="bulbGlass" cx="50%" cy="40%" r="60%">
      <stop offset="0%" style="stop-color:#ffffff;stop-opacity:0.9" />
      <stop offset="30%" style="stop-color:#f8f9fa;stop-opacity:0.7" />
      <stop offset="70%" style="stop-color:#e9ecef;stop-opacity:0.5" />
      <stop offset="100%" style="stop-color:#dee2e6;stop-opacity:0.3" />
    </radialGradient>
    
    <linearGradient id="bulbBase" x1="0%" y1="0%" x2="100%" y2="0%">
      <stop offset="0%" style="stop-color:#2c3e50;stop-opacity:1" />
      <stop offset="25%" style="stop-color:#34495e;stop-opacity:1" />
      <stop offset="50%" style="stop-color:#5d6d7e;stop-opacity:1" />
      <stop offset="75%" style="stop-color:#34495e;stop-opacity:1" />
      <stop offset="100%" style="stop-color:#2c3e50;stop-opacity:1" />
    </linearGradient>
    
    <linearGradient id="filament" x1="0%" y1="0%" x2="100%" y2="100%">
      <stop offset="0%" style="stop-color:#ffd700;stop-opacity:1" />
      <stop offset="50%" style="stop-color:#ffed4e;stop-opacity:1" />
      <stop offset="100%" style="stop-color:#fff176;stop-opacity:1" />
    </linearGradient>
    
    <radialGradient id="glowEffect" cx="50%" cy="50%" r="80%">
      <stop offset="0%" style="stop-color:#fff9c4;stop-opacity:0.8" />
      <stop offset="50%" style="stop-color:#fff59d;stop-opacity:0.4" />
      <stop offset="100%" style="stop-color:#fff176;stop-opacity:0.1" />
    </radialGradient>
    
    <filter id="bulbShadow" x="-50%" y="-50%" width="200%" height="200%">
      <feDropShadow dx="3" dy="5" stdDeviation="4" flood-color="#000000" flood-opacity="0.3"/>
    </filter>
    
    <filter id="glow" x="-50%" y="-50%" width="200%" height="200%">
      <feGaussianBlur stdDeviation="3" result="coloredBlur"/>
      <feMerge> 
        <feMergeNode in="coloredBlur"/>
        <feMergeNode in="SourceGraphic"/>
      </feMerge>
    </filter>
  </defs>
  
  <!-- Bulb shadow -->
  <ellipse cx="60" cy="75" rx="35" ry="50" fill="#000000" opacity="0.2" transform="translate(2,3)"/>
  
  <!-- Main bulb glass -->
  <ellipse cx="60" cy="75" rx="35" ry="50" fill="url(#bulbGlass)" filter="url(#bulbShadow)"/>
  
  <!-- Glow effect when lit -->
  <ellipse cx="60" cy="75" rx="35" ry="50" fill="url(#glowEffect)" filter="url(#glow)"/>
  
  <!-- Filament structure -->
  <g transform="translate(60,75)">
    <!-- Main filament wire -->
    <path d="M -15,-20 Q -10,-15 -5,-20 Q 0,-15 5,-20 Q 10,-15 15,-20" 
          stroke="url(#filament)" stroke-width="1.5" fill="none" filter="url(#glow)"/>
    <path d="M -15,-10 Q -10,-5 -5,-10 Q 0,-5 5,-10 Q 10,-5 15,-10" 
          stroke="url(#filament)" stroke-width="1.5" fill="none" filter="url(#glow)"/>
    <path d="M -15,0 Q -10,5 -5,0 Q 0,5 5,0 Q 10,5 15,0" 
          stroke="url(#filament)" stroke-width="1.5" fill="none" filter="url(#glow)"/>
    <path d="M -15,10 Q -10,15 -5,10 Q 0,15 5,10 Q 10,15 15,10" 
          stroke="url(#filament)" stroke-width="1.5" fill="none" filter="url(#glow)"/>
    
    <!-- Support wires -->
    <line x1="-15" y1="-25" x2="-15" y2="15" stroke="url(#filament)" stroke-width="1"/>
    <line x1="15" y1="-25" x2="15" y2="15" stroke="url(#filament)" stroke-width="1"/>
    <line x1="0" y1="-25" x2="0" y2="20" stroke="url(#filament)" stroke-width="0.8"/>
  </g>
  
  <!-- Bulb base/screw -->
  <rect x="35" y="120" width="50" height="40" rx="2" ry="2" fill="url(#bulbBase)"/>
  
  <!-- Screw threads -->
  <line x1="35" y1="125" x2="85" y2="125" stroke="#1a252f" stroke-width="0.5"/>
  <line x1="35" y1="130" x2="85" y2="130" stroke="#1a252f" stroke-width="0.5"/>
  <line x1="35" y1="135" x2="85" y2="135" stroke="#1a252f" stroke-width="0.5"/>
  <line x1="35" y1="140" x2="85" y2="140" stroke="#1a252f" stroke-width="0.5"/>
  <line x1="35" y1="145" x2="85" y2="145" stroke="#1a252f" stroke-width="0.5"/>
  <line x1="35" y1="150" x2="85" y2="150" stroke="#1a252f" stroke-width="0.5"/>
  <line x1="35" y1="155" x2="85" y2="155" stroke="#1a252f" stroke-width="0.5"/>
  
  <!-- Base contact point -->
  <circle cx="60" cy="165" r="8" fill="#1a252f"/>
  <circle cx="60" cy="165" r="6" fill="#2c3e50"/>
  <circle cx="60" cy="165" r="2" fill="#34495e"/>
  
  <!-- Glass highlight -->
  <ellipse cx="45" cy="55" rx="8" ry="15" fill="#ffffff" opacity="0.6"/>
  <ellipse cx="50" cy="50" rx="3" ry="8" fill="#ffffff" opacity="0.8"/>
  
  <!-- Realistic imperfections -->
  <circle cx="70" cy="90" r="0.5" fill="#dee2e6" opacity="0.7"/>
  <line x1="40" y1="100" x2="42" y2="102" stroke="#e9ecef" stroke-width="0.3" opacity="0.5"/>
</svg>